<svg height="512pt" viewBox="0 0 512 512" width="512pt" xmlns="http://www.w3.org/2000/svg"><path d="m416 512h-320c-53.023438 0-96-42.976562-96-96v-320c0-53.023438 42.976562-96 96-96h320c53.023438 0 96 42.976562 96 96v320c0 53.023438-42.976562 96-96 96zm0 0" fill="#f5e6fe"/><path d="m256 128c-70.574219 0-128 57.425781-128 128s57.425781 128 128 128 128-57.425781 128-128-57.425781-128-128-128zm60.878906 194.207031c-2.078125 2.082031-4.816406 3.121094-7.535156 3.121094-2.734375 0-5.457031-1.039063-7.535156-3.121094l-53.328125-53.328125c-2-2-3.121094-4.703125-3.121094-7.535156v-69.34375c0-5.886719 4.785156-10.671875 10.671875-10.671875 5.890625 0 10.671875 4.769531 10.671875 10.671875v64.910156l50.207031 50.210938c4.128906 4.175781 4.128906 10.925781-.03125 15.085937zm0 0" fill="#be63f9"/></svg>